<svg xmlns="http://www.w3.org/2000/svg" xmlns:xlink="http://www.w3.org/1999/xlink" version="1.1" x="0px" y="0px" viewBox="0 0 100 100" style="enable-background:new 0 0 100 100;" xml:space="preserve"><path d="M23.7,89.4h52.5c6.2,0,11.2-5,11.2-11.2c0,0,0,0,0,0V29.4c0-6.2-5-11.2-11.2-11.2c0,0,0,0,0,0l0,0v-5.5c0-1.1-0.9-2-2-2  h-3.5c-1.1,0-2,0.9-2,2v5.5h-7.5v-5.5c0-1.1-0.9-2-2-2h-3.5c-1.1,0-2,0.9-2,2v5.5h-7.5v-5.5c0-1.1-0.9-2-2-2h-3.5c-1.1,0-2,0.9-2,2  v5.5h-7.5v-5.5c0-1.1-0.9-2-2-2h-3.5c-1.1,0-2,0.9-2,2v5.5l0,0c-6.2,0-11.2,5-11.3,11.2c0,0,0,0,0,0v48.7  C12.5,84.3,17.5,89.4,23.7,89.4C23.7,89.4,23.7,89.4,23.7,89.4z M57.5,81.9h-15v-15h15V81.9z M57.5,59.4h-15v-15h15V59.4z M80,78.1  c0,2.1-1.7,3.7-3.7,3.8c0,0,0,0,0,0H65v-15h15V78.1z M80,59.4H65v-15h15V59.4z M20,29.4c0-2.1,1.7-3.7,3.7-3.8c0,0,0,0,0,0l0,0v1.7  c0,1.1,0.9,2,2,2h3.5c1.1,0,2-0.9,2-2v-1.7h7.5v1.7c0,1.1,0.9,2,2,2h3.5c1.1,0,2-0.9,2-2v-1.7h7.5v1.7c0,1.1,0.9,2,2,2h3.5  c1.1,0,2-0.9,2-2v-1.7h7.5v1.7c0,1.1,0.9,2,2,2h3.5c1.1,0,2-0.9,2-2v-1.7l0,0c2.1-0.1,3.8,1.6,3.8,3.6c0,0,0,0.1,0,0.1v7.5H20V29.4z   M20,44.4h15v15H20V44.4z M20,66.9h15v15H23.7c-2.1,0-3.7-1.7-3.7-3.7c0,0,0,0,0,0V66.9z"/></svg>